<svg width="13" height="12" viewBox="0 0 13 12" fill="none" xmlns="http://www.w3.org/2000/svg">
<path d="M2.33203 1C2.60817 1 2.83203 1.22386 2.83203 1.5L2.83203 10.5C2.83203 10.7761 2.60817 11 2.33203 11C2.05589 11 1.83203 10.7761 1.83203 10.5L1.83203 1.5C1.83203 1.22386 2.05589 1 2.33203 1Z" fill="#2B2F36"/>
<path opacity="0.76" d="M6.83203 6C6.83203 5.72386 6.60817 5.5 6.33203 5.5C6.05589 5.5 5.83203 5.72386 5.83203 6L5.83203 10.5C5.83203 10.7761 6.05589 11 6.33203 11C6.60817 11 6.83203 10.7761 6.83203 10.5L6.83203 6Z" fill="#2B2F36"/>
<path opacity="0.5" d="M10.332 1C10.6082 1 10.832 1.22386 10.832 1.5L10.832 10.5C10.832 10.7761 10.6082 11 10.332 11C10.0559 11 9.83203 10.7761 9.83203 10.5L9.83203 1.5C9.83203 1.22386 10.0559 1 10.332 1Z" fill="#2B2F36"/>
</svg>
