<?xml version="1.0" standalone="no"?><!DOCTYPE svg PUBLIC "-//W3C//DTD SVG 1.1//EN" "http://www.w3.org/Graphics/SVG/1.1/DTD/svg11.dtd"><svg t="1716390705264" class="icon" viewBox="0 0 1024 1024" version="1.1" xmlns="http://www.w3.org/2000/svg" p-id="1881" xmlns:xlink="http://www.w3.org/1999/xlink" width="200" height="200"><path d="M213.333333 115.598222c0-16.725333 13.539556-30.264889 30.264889-30.264889h287.288889a226.872889 226.872889 0 0 1 157.297778 390.314667 241.948444 241.948444 0 0 1-111.900445 456.590222H243.598222a30.264889 30.264889 0 0 1-30.264889-30.264889V115.598222z m85.333334 332.686222h232.277333a136.135111 136.135111 0 0 0 136.078222-136.078222C667.022222 236.999111 606.094222 170.666667 530.944 170.666667H298.666667v277.617777z m0 90.737778v302.478222h277.617777a151.210667 151.210667 0 0 0 0-302.478222H298.666667z" p-id="1882"></path></svg>