<svg width="18" height="18" viewBox="0 0 18 18" fill="none" xmlns="http://www.w3.org/2000/svg">
<path d="M3.75 2.03167C3.75 1.73804 3.98804 1.5 4.28167 1.5H9.33256C11.5348 1.5 13.3201 3.28528 13.3201 5.48754C13.3201 6.61644 12.851 7.63577 12.0971 8.36123C13.4559 9.07126 14.3834 10.494 14.3834 12.1334C14.3834 14.4825 12.4791 16.3868 10.1301 16.3868H4.28167C3.98804 16.3868 3.75 16.1488 3.75 15.8551V2.03167ZM5.25 7.88006H9.33256C10.6539 7.88006 11.7251 6.80889 11.7251 5.48754C11.7251 4.16619 10.6539 3 9.33256 3H5.25V7.88006ZM5.25 9.47508V14.7918H10.1301C11.5982 14.7918 12.7884 13.6016 12.7884 12.1334C12.7884 10.6653 11.5982 9.47508 10.1301 9.47508H5.25Z" fill="#2B2F36"/>
</svg>
