<svg width="18" height="18" viewBox="0 0 18 18" fill="none" xmlns="http://www.w3.org/2000/svg">
<path d="M1.5 3C1.5 2.58579 1.83579 2.25 2.25 2.25H15.75C16.1642 2.25 16.5 2.58579 16.5 3C16.5 3.41421 16.1642 3.75 15.75 3.75H2.25C1.83579 3.75 1.5 3.41421 1.5 3Z" fill="#2B2F36"/>
<path d="M1.5 15C1.5 14.5858 1.83579 14.25 2.25 14.25H15.75C16.1642 14.25 16.5 14.5858 16.5 15C16.5 15.4142 16.1642 15.75 15.75 15.75H2.25C1.83579 15.75 1.5 15.4142 1.5 15Z" fill="#2B2F36"/>
<path d="M6 8.25C5.58579 8.25 5.25 8.58579 5.25 9C5.25 9.41421 5.58579 9.75 6 9.75H12C12.4142 9.75 12.75 9.41421 12.75 9C12.75 8.58579 12.4142 8.25 12 8.25H6Z" fill="#2B2F36"/>
</svg>
