<svg width="18" height="18" viewBox="0 0 18 18" fill="none" xmlns="http://www.w3.org/2000/svg">
<path d="M12.8105 12.2956L11.3924 8.98669C11.3463 8.99555 11.2987 9.00018 11.25 9.00018H6.75C6.70121 9.00018 6.65351 8.99552 6.60732 8.98663L5.18919 12.2956C5.02602 12.6763 4.58511 12.8527 4.20439 12.6895C3.82366 12.5264 3.6473 12.0855 3.81047 11.7047L7.96579 2.00899C8.35541 1.09987 9.64424 1.09986 10.0339 2.00899L14.1892 11.7047C14.3524 12.0855 14.176 12.5264 13.7953 12.6895C13.4145 12.8527 12.9736 12.6763 12.8105 12.2956ZM8.99983 3.40412L7.24437 7.50018H10.7553L8.99983 3.40412Z" fill="#2B2F36"/>
<path d="M3.375 14.2502C2.33947 14.2502 1.5 15.0896 1.5 16.1252C1.5 17.1607 2.33947 18.0002 3.375 18.0002H14.625C15.6605 18.0002 16.5 17.1607 16.5 16.1252C16.5 15.0896 15.6605 14.2502 14.625 14.2502H3.375Z" fill="#2B2F36"/>
</svg>
