<svg width="18" height="18" viewBox="0 0 18 18" fill="none" xmlns="http://www.w3.org/2000/svg">
<path d="M4.11931 5.41924C4.14114 4.47374 4.51058 3.58231 5.17661 2.87358C6.01333 1.97678 7.28864 1.5 8.86426 1.5C10.4708 1.5 11.6988 1.92682 12.5146 2.76671C12.8149 3.06072 13.1665 3.48529 13.4592 3.96269C13.7918 4.50507 13.3164 5.11019 12.6802 5.11019V5.11019C12.2255 5.11019 11.9009 4.77496 11.6854 4.3746C11.6128 4.23977 11.5249 4.11607 11.4139 3.98712C10.8627 3.28927 9.98239 2.923 8.87398 2.923C7.07166 2.923 5.75866 3.96922 5.72406 5.46771C5.70942 6.10173 5.97725 6.65262 6.47054 7H4.40743C4.20477 6.53387 4.10589 6.00058 4.11931 5.41924ZM10.7978 9.9375H3.02935C2.64101 9.9375 2.32621 9.65319 2.32619 9.26485V9.26485C2.32616 8.87654 2.64095 8.53125 3.02926 8.53125H15.1233C15.5116 8.53125 15.8264 8.85863 15.8264 9.24696V9.24696C15.8264 9.63528 15.5116 9.9375 15.1233 9.9375H13.2822C13.6888 10.5424 14.002 11.4031 13.983 12.2292C13.9221 14.8647 11.9033 16.5 8.68004 16.5C6.52391 16.5 4.90884 15.7767 4.08315 14.4411C3.93937 14.2047 3.79861 13.8918 3.67386 13.5477C3.47809 13.0077 3.91256 12.4738 4.48697 12.4738V12.4738C4.91719 12.4738 5.26248 12.7861 5.41654 13.1878C5.5446 13.5217 5.71654 13.7838 5.9664 14.0443C6.5702 14.6882 7.54435 15.0229 8.7911 15.0229C10.9245 15.0229 12.3127 13.981 12.3512 12.3159C12.3697 11.5117 12.1594 11.1083 11.6787 10.5006C11.3241 10.0523 10.7978 9.9375 10.7978 9.9375Z" fill="#2B2F36"/>
</svg>
