<?xml version="1.0" standalone="no"?><!DOCTYPE svg PUBLIC "-//W3C//DTD SVG 1.1//EN" "http://www.w3.org/Graphics/SVG/1.1/DTD/svg11.dtd"><svg t="1716391035829" class="icon" viewBox="0 0 1024 1024" version="1.1" xmlns="http://www.w3.org/2000/svg" p-id="1521" xmlns:xlink="http://www.w3.org/1999/xlink" width="200" height="200"><path d="M234.382222 308.337778a217.429333 217.429333 0 0 1 60.131556-144.839111C342.072889 112.469333 414.663111 85.333333 504.263111 85.333333c91.420444 0 161.28 24.291556 207.644445 72.078223 17.066667 16.725333 37.091556 40.846222 53.76 68.039111 18.944 30.833778-8.135111 65.251556-44.316445 65.251555-25.827556 0-44.373333-19.057778-56.604444-41.813333a122.197333 122.197333 0 0 0-15.416889-22.072889c-31.345778-39.708444-81.464889-60.529778-144.497778-60.529778-102.513778 0-177.208889 59.505778-179.2 144.782222-0.853333 36.067556 14.392889 67.413333 42.496 87.153778H250.709333a212.195556 212.195556 0 0 1-16.384-89.884444z m379.904 257.024H172.316444c-22.072889 0-39.992889-16.213333-39.992888-38.286222 0-22.072889 17.92-41.756444 39.992888-41.756445h688.014223c22.129778 0 39.992889 18.659556 39.992889 40.732445 0 22.072889-17.863111 39.253333-39.992889 39.253333h-104.675556c23.096889 34.417778 40.903111 83.399111 39.822222 130.389333-3.413333 149.959111-118.328889 242.972444-301.681777 242.972445-122.652444 0-214.528-41.130667-261.518223-117.134223a293.888 293.888 0 0 1-23.324444-50.801777c-11.093333-30.72 13.653333-61.098667 46.307555-61.098667 24.462222 0 44.088889 17.749333 52.906667 40.618667 7.281778 19.000889 17.066667 33.905778 31.288889 48.696889 34.304 36.636444 89.713778 55.694222 160.654222 55.694222 121.344 0 200.362667-59.278222 202.524445-153.998222 1.080889-45.738667-10.922667-68.721778-38.229334-103.253334-20.195556-25.543111-50.119111-32.028444-50.119111-32.028444z" p-id="1522"></path></svg>