<svg width="18" height="18" viewBox="0 0 18 18" fill="none" xmlns="http://www.w3.org/2000/svg">
<path d="M11.1193 3.80769L8.39205 14.1923H11.4314C11.8615 14.1923 12.2102 14.541 12.2102 14.9712C12.2102 15.4013 11.8615 15.75 11.4314 15.75H3.71635C3.2862 15.75 2.9375 15.4013 2.9375 14.9712C2.9375 14.541 3.2862 14.1923 3.71635 14.1923H6.75568L9.48295 3.80769H6.44362C6.01347 3.80769 5.66477 3.45899 5.66477 3.02885C5.66477 2.5987 6.01347 2.25 6.44362 2.25H14.1587C14.5888 2.25 14.9375 2.5987 14.9375 3.02885C14.9375 3.45899 14.5888 3.80769 14.1587 3.80769H11.1193Z" fill="#2B2F36"/>
</svg>
