<svg width="12" height="12" viewBox="0 0 12 12" fill="none" xmlns="http://www.w3.org/2000/svg">
<path d="M0.25 5.75C0.25 5.47386 0.473858 5.25 0.75 5.25H3C3.27614 5.25 3.5 5.47386 3.5 5.75V6.25C3.5 6.52614 3.27614 6.75 3 6.75H0.75C0.473858 6.75 0.25 6.52614 0.25 6.25V5.75Z" fill="#2B2F36"/>
<path opacity="0.5" d="M8.5 5.75C8.5 5.47386 8.72386 5.25 9 5.25H11.25C11.5261 5.25 11.75 5.47386 11.75 5.75V6.25C11.75 6.52614 11.5261 6.75 11.25 6.75H9C8.72386 6.75 8.5 6.52614 8.5 6.25V5.75Z" fill="#2B2F36"/>
<path opacity="0.76" d="M4.34961 5.75C4.34961 5.47386 4.57347 5.25 4.84961 5.25H7.09961C7.37575 5.25 7.59961 5.47386 7.59961 5.75V6.25C7.59961 6.52614 7.37575 6.75 7.09961 6.75H4.84961C4.57347 6.75 4.34961 6.52614 4.34961 6.25V5.75Z" fill="#2B2F36"/>
</svg>
