<svg width="13" height="12" viewBox="0 0 13 12" fill="none" xmlns="http://www.w3.org/2000/svg">
<path d="M2.16602 5C2.85637 5 3.41602 5.55964 3.41602 6.25C3.41602 6.94036 2.85637 7.5 2.16602 7.5C1.47566 7.5 0.916016 6.94036 0.916016 6.25C0.916016 5.55964 1.47566 5 2.16602 5Z" fill="#1456F0"/>
<path opacity="0.76" d="M6.66602 5C5.97566 5 5.41602 5.55964 5.41602 6.25C5.41602 6.94036 5.97566 7.5 6.66602 7.5C7.35637 7.5 7.91602 6.94036 7.91602 6.25C7.91602 5.55964 7.35637 5 6.66602 5Z" fill="#1456F0"/>
<path opacity="0.5" d="M11.166 5C10.4757 5 9.91602 5.55964 9.91602 6.25C9.91602 6.94036 10.4757 7.5 11.166 7.5C11.8564 7.5 12.416 6.94036 12.416 6.25C12.416 5.55964 11.8564 5 11.166 5Z" fill="#1456F0"/>
</svg>
