<?xml version="1.0" standalone="no"?><!DOCTYPE svg PUBLIC "-//W3C//DTD SVG 1.1//EN" "http://www.w3.org/Graphics/SVG/1.1/DTD/svg11.dtd"><svg t="1716391031816" class="icon" viewBox="0 0 1024 1024" version="1.1" xmlns="http://www.w3.org/2000/svg" p-id="1374" xmlns:xlink="http://www.w3.org/1999/xlink" width="200" height="200"><path d="M314.083556 130.275556a42.211556 42.211556 0 0 0-42.211556-42.439112 42.609778 42.609778 0 0 0-42.609778 42.382223v245.987555c0 179.427556 110.933333 311.068444 282.737778 311.068445 171.804444 0 282.737778-131.640889 282.737778-311.068445V130.275556a42.496 42.496 0 0 0-42.496-42.439112 42.325333 42.325333 0 0 0-42.325334 42.382223v245.987555c0 128.170667-75.207111 226.247111-197.916444 226.247111-122.652444 0-197.916444-98.076444-197.916444-226.247111V130.275556z m-183.751112 698.368a42.154667 42.154667 0 0 0-42.439111 42.097777c0 23.438222 19.000889 42.666667 42.382223 42.666667h763.448888a42.666667 42.666667 0 0 0 42.382223-42.723556 42.097778 42.097778 0 0 0-42.382223-42.097777H130.275556z" p-id="1375"></path></svg>