<svg width="18" height="18" viewBox="0 0 18 18" fill="none" xmlns="http://www.w3.org/2000/svg">
<path d="M5.52118 2.28947C5.52118 1.87773 5.19099 1.54395 4.77925 1.54395C4.36751 1.54395 4.03014 1.87773 4.03014 2.28947V6.61349C4.03014 9.76664 5.98085 12.0806 9.00027 12.0806C12.0197 12.0806 13.9704 9.76664 13.9704 6.61349V2.28955C13.9704 1.87779 13.6351 1.54405 13.2233 1.54398C12.8116 1.54392 12.4794 1.87768 12.4794 2.28938V6.61349C12.4794 8.86574 11.157 10.5896 9.00027 10.5896C6.84354 10.5896 5.52118 8.86574 5.52118 6.61349V2.28947ZM2.29044 14.5657C1.8787 14.5657 1.54492 14.8945 1.54492 15.3063C1.54492 15.718 1.8787 16.0568 2.29044 16.0568H15.7098C16.1216 16.0568 16.4553 15.7167 16.4553 15.305C16.4553 14.8932 16.1216 14.5657 15.7098 14.5657H2.29044Z" fill="#2B2F36"/>
</svg>
